<svg width="256" height="256" xmlns="http://www.w3.org/2000/svg" xml:space="preserve" enable-background="new 0 0 256 256" version="1.1">
 <metadata>Svg Vector Icons : http://www.onlinewebfonts.com/icon</metadata>

 <g>
  <title>Layer 1</title>
  <g id="svg_1">
   <g id="svg_2">
    <path id="svg_3" d="m209.1,120.1c0,-1.4 0.1,-2.7 0.1,-3.7c0,-16.8 -6.6,-32.6 -18.4,-44.5c-11.9,-11.9 -27.7,-18.4 -44.5,-18.4c-13,0 -25.8,4.4 -37,12.8c-7.7,5.7 -14.1,13 -18.7,21.1c-5.1,-2.6 -10.7,-4 -16.5,-4c-9.3,0 -18.3,4.3 -25.3,12.2c-4.6,5.3 -7.9,11.6 -9.6,18.3c-7.9,3.1 -14.9,8.5 -20,15.3c-6,8 -9.1,17.5 -9.1,27.4c0,25.3 20.6,45.9 45.9,45.9l0,-0.1l148.9,0l0,0.1c22.7,0 41.2,-18.5 41.2,-41.2c-0.1,-21.2 -16.4,-38.9 -37,-41.2zm-2.6,72.8l0,0l-153.4,0c-18.7,-1.4 -33.5,-17.1 -33.5,-36.3c0,-15.8 9.9,-29.8 24.9,-34.8c0,0 0.1,0 0.1,-0.1c1.5,-0.4 2.6,-1.6 2.9,-3.2c2.1,-12.7 13.2,-25.6 26.5,-25.6c5.5,0 10.7,1.7 15.1,4.8c0.4,0.4 1,0.7 1.6,1l0,0c2.3,0.9 4.9,-0.2 6,-2.5c9.1,-19.5 29.3,-33.2 49.6,-33.2c29.5,0 53.4,24 53.4,53.4c0,2 -0.1,5.1 -0.3,7.9c-0.2,2.5 1.5,4.6 4,5l0,0c0.4,0.1 0.8,0.1 1.3,0l0,0c17.5,0 31.9,14.4 31.9,31.9c-0.1,17 -13.5,30.8 -30.1,31.7z" fill="#ffffff"/>
   </g>
  </g>
 </g>
</svg>